<?xml version="1.0" encoding="iso-8859-1"?>
<!-- Generator: Adobe Illustrator 18.0.0, SVG Export Plug-In . SVG Version: 6.00 Build 0)  -->
<!DOCTYPE svg PUBLIC "-//W3C//DTD SVG 1.1//EN" "http://www.w3.org/Graphics/SVG/1.1/DTD/svg11.dtd">
<svg xmlns="http://www.w3.org/2000/svg" xmlns:xlink="http://www.w3.org/1999/xlink" version="1.1" id="Capa_1" x="0px" y="0px" viewBox="0 0 455.731 455.731" style="enable-background:new 0 0 455.731 455.731;" xml:space="preserve" width="512px" height="512px">
<g>
	<path d="M240.898,132.085h-19.03c-43.32,0-78.44,35.12-78.44,78.45v83.66c0,15.83,12.84,28.66,28.67,28.66   c7.91,0,15.08-3.21,20.27-8.39c5.19-5.19,8.4-12.35,8.4-20.27v-19.29h40.13c39.44,0,71.41-31.97,71.41-71.41   c0-19.72-7.99-37.57-20.92-50.5C278.468,140.075,260.618,132.085,240.898,132.085z M230.998,229.555h-32.32v-22.38   c0-16.43,13.31-29.74,29.74-29.74h1.89c14.57,0,26.99,11.93,26.75,26.5C256.818,218.105,245.218,229.555,230.998,229.555z" fill="#bdbdbd"/>
	<path d="M0,0v455.731h455.731V0H0z M363.528,213.206c-4.77,61.09-54.5,103.64-116.9,106.01c-6.25,33.35-41.72,52.9-74.53,52.9   c-44.26,0-80.27-33.66-80.27-77.92v-83.16c0-72.1,58.45-127.42,130.54-127.42h16.51   C310.938,83.615,369.148,141.375,363.528,213.206z" fill="#bdbdbd"/>
</g>
<g>
</g>
<g>
</g>
<g>
</g>
<g>
</g>
<g>
</g>
<g>
</g>
<g>
</g>
<g>
</g>
<g>
</g>
<g>
</g>
<g>
</g>
<g>
</g>
<g>
</g>
<g>
</g>
<g>
</g>
</svg>
